<svg width="221" height="42" viewBox="0 0 221 42" fill="none" xmlns="http://www.w3.org/2000/svg">
<path d="M33.8527 18.7858C32.6104 19.9833 31.9896 21.6488 32.1591 23.3293L32.13 23.3014C32.3042 25.279 31.5597 27.2297 30.095 28.633C28.6302 30.0364 26.5943 30.7498 24.5302 30.5828L24.5593 30.6107C22.0602 30.3879 19.6835 31.6903 18.6169 33.8672C17.5504 36.0441 18.023 38.628 19.7986 40.3277C21.5742 42.0274 24.2716 42.4779 26.5427 41.4541C28.8138 40.4302 30.1711 38.1519 29.9362 35.7577L29.9669 35.7856C29.7927 33.808 30.5373 31.8573 32.002 30.454C33.4667 29.0506 35.5027 28.3373 37.5668 28.5042L37.536 28.4763C40.2826 28.7129 42.8384 27.1083 43.7084 24.6011C44.5784 22.0938 43.534 19.3425 41.1861 17.9565C38.8383 16.5705 35.8038 16.9139 33.8575 18.7858H33.8527Z" fill="#5454D4"/>
<path d="M21.909 26.953L21.8782 26.925C23.6334 27.0945 25.3751 26.4998 26.6229 25.3052C27.8708 24.1106 28.4927 22.4422 28.3172 20.7605L28.3479 20.7884C28.1737 18.8108 28.9183 16.8601 30.383 15.4568C31.8477 14.0534 33.8837 13.3401 35.9478 13.507L35.917 13.4791C38.4164 13.704 40.7945 12.4029 41.8627 10.2263C42.9308 8.04974 42.4596 5.4651 40.6845 3.76437C38.9094 2.06364 36.2117 1.61214 33.94 2.63556C31.6682 3.65897 30.3103 5.93747 30.545 8.33213L30.5159 8.30266C30.6907 10.2804 29.9463 12.2314 28.4814 13.6349C27.0166 15.0384 24.9803 15.7516 22.916 15.5841L22.9452 15.6136C21.1901 15.4441 19.4483 16.0388 18.2005 17.2334C16.9527 18.428 16.3307 20.0964 16.5062 21.7781L16.4771 21.7502C16.6507 23.7277 15.906 25.678 14.4414 27.0812C12.9768 28.4845 10.9412 29.198 8.87728 29.0316L8.90642 29.0595C6.40705 28.8346 4.02892 30.1357 2.96076 32.3123C1.89259 34.4889 2.36383 37.0735 4.13893 38.7742C5.91403 40.475 8.61168 40.9265 10.8835 39.903C13.1552 38.8796 14.5131 36.6011 14.2784 34.2065L14.3092 34.2344C14.1349 32.2568 14.8795 30.3061 16.3442 28.9027C17.8089 27.4994 19.8449 26.786 21.909 26.953V26.953Z" fill="#FF7143"/>
<path d="M11.0582 23.8397C12.3006 22.6425 12.9209 20.9766 12.7501 19.2962L12.7808 19.3241C12.6065 17.3459 13.3514 15.3947 14.8169 13.9912C16.2824 12.5877 18.3193 11.8748 20.3839 12.0427L20.3531 12.0148C22.8516 12.2391 25.2286 10.9382 26.2961 8.76225C27.3636 6.58634 26.8924 4.00271 25.118 2.30261C23.3436 0.602512 20.647 0.151041 18.3759 1.17383C16.1049 2.19662 14.7471 4.47403 14.9811 6.86785L14.952 6.83993C15.1262 8.81756 14.3817 10.7682 12.917 12.1716C11.4522 13.5749 9.41628 14.2883 7.35218 14.1214L7.38132 14.1493C4.63477 13.9133 2.07953 15.5183 1.21008 18.0256C0.340627 20.5329 1.38534 23.2838 3.73321 24.6695C6.08107 26.0552 9.11536 25.7116 11.0614 23.8397H11.0582Z" fill="#5454D4"/>
<path d="M61.2114 8.36792H66.0199V30.7877H61.2114V8.36792Z" fill="#19191B"/>
<path fill-rule="evenodd" clip-rule="evenodd" d="M73.9637 15.5678C70.7904 16.8379 68.7294 19.8157 68.7432 23.1107C68.7265 25.2712 69.6173 27.3474 71.2151 28.8721C72.8128 30.3968 74.9834 31.242 77.2383 31.2173C80.6774 31.2173 83.7771 29.2307 85.09 26.1853C86.4029 23.1398 85.6698 19.6365 83.2332 17.3112C80.7965 14.986 77.137 14.2977 73.9637 15.5678ZM77.17 19.6752C79.1934 19.6394 80.8689 21.1724 80.9249 23.1105C80.9795 24.0714 80.6122 25.0103 79.912 25.7001C79.2117 26.3899 78.2423 26.7676 77.2383 26.7419C75.2146 26.742 73.5688 25.1798 73.55 23.241C73.5313 21.3021 75.1467 19.711 77.17 19.6752Z" fill="#19191B"/>
<path fill-rule="evenodd" clip-rule="evenodd" d="M104.898 30.0136V15.4321L100.217 15.429V16.9957C99.0757 15.6571 97.3391 14.9165 95.5368 14.9993C91.1404 15.1322 87.6481 18.5853 87.6481 22.7996C87.6481 27.014 91.1404 30.4671 95.5368 30.5999C97.3391 30.6828 99.0757 29.9421 100.217 28.6035V30.0074C100.298 30.9336 99.9348 31.8447 99.2303 32.4837C98.5259 33.1227 97.5566 33.4204 96.5957 33.2929C95.0757 33.4415 93.6192 32.6705 92.9415 31.3585L88.8388 33.631C90.4439 36.1367 93.3754 37.5734 96.4354 37.3539C100.698 37.3539 104.898 35.1729 104.898 30.0136ZM97.9341 19.2531C99.3807 19.878 100.285 21.283 100.219 22.802C100.249 23.7828 99.8447 24.73 99.106 25.4097C98.3673 26.0893 97.3631 26.4381 96.3415 26.3698C94.7547 26.3716 93.3261 25.4488 92.7328 24.0388C92.1396 22.6287 92.5008 21.0147 93.6453 19.9616C94.7898 18.9086 96.4876 18.6281 97.9341 19.2531Z" fill="#19191B"/>
<path fill-rule="evenodd" clip-rule="evenodd" d="M112.842 15.5678C109.669 16.8379 107.608 19.8157 107.621 23.1107C107.605 25.2712 108.495 27.3474 110.093 28.8721C111.691 30.3968 113.862 31.242 116.117 31.2173C119.556 31.2173 122.655 29.2307 123.968 26.1853C125.281 23.1398 124.548 19.6365 122.111 17.3112C119.675 14.986 116.015 14.2977 112.842 15.5678ZM116.048 19.6752C118.072 19.6394 119.747 21.1724 119.803 23.1105C119.858 24.0714 119.49 25.0103 118.79 25.7001C118.09 26.3899 117.12 26.7676 116.117 26.7419C114.093 26.742 112.447 25.1798 112.428 23.241C112.41 21.3021 114.025 19.711 116.048 19.6752Z" fill="#19191B"/>
<path fill-rule="evenodd" clip-rule="evenodd" d="M128.635 8.76287C127.557 9.19072 126.854 10.1987 126.854 11.3167C126.87 12.8371 128.152 14.0659 129.739 14.081C130.906 14.081 131.958 13.4075 132.405 12.3746C132.851 11.3416 132.604 10.1527 131.779 9.36209C130.954 8.57151 129.713 8.33501 128.635 8.76287ZM132.15 15.4321H127.34L127.333 30.7892H132.15V15.4321Z" fill="#19191B"/>
<path fill-rule="evenodd" clip-rule="evenodd" d="M150.841 28.6903C152.279 27.1686 153.025 25.1605 152.913 23.1106C153.026 21.0603 152.281 19.0515 150.842 17.5294C149.404 16.0074 147.392 15.0978 145.251 15.0023C143.447 14.9081 141.694 15.5955 140.477 16.8747V15.432H135.668V36.9304H140.477V29.3434C141.694 30.6235 143.447 31.3116 145.251 31.2172C147.391 31.1214 149.403 30.2119 150.841 28.6903ZM144.227 19.5479C146.321 19.5143 148.052 21.1046 148.104 23.1105C148.177 24.1074 147.802 25.0866 147.074 25.802C146.345 26.5174 145.333 26.9011 144.291 26.8567C142.197 26.8569 140.494 25.2393 140.476 23.2328C140.459 21.2263 142.133 19.5815 144.227 19.5479Z" fill="#19191B"/>
<path d="M167.751 26.1805C167.751 29.7126 164.547 31.2173 161.086 31.2173C158.224 31.4656 155.493 30.0177 154.193 27.5626L158.359 25.2901C158.706 26.433 159.84 27.1881 161.079 27.1019C162.232 27.1019 162.81 26.7637 162.81 26.151C162.81 24.4602 154.923 25.3521 154.923 20.0392C154.923 16.6901 157.873 15.0024 161.207 15.0024C163.759 14.925 166.154 16.1837 167.457 18.2879L163.354 20.4068C162.986 19.5845 162.141 19.0525 161.207 19.0557C160.373 19.0557 159.86 19.366 159.86 19.9151C159.866 21.6664 167.751 20.4984 167.751 26.1805Z" fill="#19191B"/>
<path d="M185.316 15.4321V30.7892H180.508V29.345C179.383 30.6377 177.678 31.3347 175.926 31.2189C172.688 31.2189 169.935 29.0084 169.935 24.8589V15.4321H174.744V24.1841C174.662 24.9244 174.925 25.6615 175.462 26.1994C175.999 26.7373 176.756 27.0215 177.532 26.9763C179.295 26.9763 180.513 25.9944 180.513 23.8134V15.4368L185.316 15.4321Z" fill="#19191B"/>
<path d="M212.889 21.3593V30.7877H208.08V21.758C208.08 20.2223 207.311 19.2404 205.773 19.2404C204.17 19.2404 203.272 20.3154 203.272 22.1272V30.7877H198.465V21.758C198.465 20.2223 197.696 19.2404 196.156 19.2404C194.553 19.2404 193.656 20.3154 193.656 22.1272V30.7877H188.847V15.4306H193.656V16.8422C194.669 15.5697 196.286 14.8764 197.951 15.0009C199.625 14.9225 201.219 15.6916 202.15 17.0268C203.233 15.631 204.988 14.8659 206.798 15.0009C210.478 15.0024 212.889 17.5201 212.889 21.3593Z" fill="#19191B"/>
<path d="M216.956 15.3375C218.926 15.3375 220.524 13.8068 220.524 11.9186C220.524 10.0304 218.926 8.49976 216.956 8.49976C214.985 8.49976 213.387 10.0304 213.387 11.9186C213.387 13.8068 214.985 15.3375 216.956 15.3375Z" fill="#19191B"/>
</svg>
